<svg width="260" height="62" viewBox="0 0 260 62" fill="none" xmlns="http://www.w3.org/2000/svg">
<path d="M0.6 28V1.32H20.52C24.6 1.32 26.52 1.56 28.16 2.32C31.08 3.6 32.64 6.36 32.64 10.2C32.64 14.68 30.64 17.6 26.88 18.6C25.6 18.92 24.08 19.04 20.6 19.04H10.8V28H0.6ZM10.8 12.6H17.2C19.28 12.6 20.04 12.52 20.56 12.2C21.28 11.76 21.72 10.92 21.72 9.84C21.72 7.88 20.68 7.28 17.24 7.28H10.8V12.6ZM38.1469 28V1.32H57.9069C63.0669 1.32 64.3869 1.48 66.1869 2.24C68.5069 3.2 69.9069 5.76 69.9069 9C69.9069 11.16 69.3469 13 68.3869 14.08C67.5469 15 66.6269 15.4 64.6669 15.84C68.6669 17 69.1069 17.8 69.3469 24.64C69.4269 26.68 69.4669 27 70.0669 28H59.3869C59.2269 26.92 59.1869 26.6 59.0669 24.48C58.8269 18.84 58.4669 18.44 54.1469 18.44H48.3469V28H38.1469ZM48.3469 12.8H55.1069C56.7469 12.8 57.4669 12.68 57.9469 12.36C58.5869 11.92 58.9869 11.12 58.9869 10.12C58.9869 8.2 58.0669 7.56 55.1869 7.56H48.3469V12.8ZM93.0853 0.479999C99.6853 0.479999 103.845 1.6 107.125 4.24C109.885 6.44 111.245 9.92 111.245 14.68C111.245 24.32 105.445 28.88 93.2053 28.88C86.5253 28.88 82.3253 27.76 79.0453 25.12C76.2453 22.84 74.9253 19.48 74.9253 14.44C74.9253 9.96 76.3653 6.4 79.0453 4.24C82.2853 1.64 86.5653 0.479999 93.0853 0.479999ZM93.0853 7.28C88.6053 7.28 86.1653 9.84 86.1653 14.56C86.1653 19.56 88.5253 22.08 93.1253 22.08C97.6053 22.08 100.005 19.52 100.005 14.68C100.005 9.84 97.6053 7.28 93.0853 7.28ZM134.494 1.32H144.694V15.36C144.694 21.4 144.534 22.48 143.254 24.36C141.254 27.32 137.094 28.84 130.854 28.84C123.734 28.84 118.734 27.04 116.894 23.84C116.014 22.32 115.734 20.56 115.734 16.8H125.894C126.054 20.76 127.134 22.04 130.254 22.04C132.134 22.04 133.454 21.36 133.934 20.16C134.294 19.16 134.494 17.4 134.494 14.68V1.32ZM151.647 28V1.32H181.847V8.12H161.847V11.08H178.407V17.88H161.847V21.2H183.087V28H151.647ZM212.565 18.04H224.285C223.885 21.92 222.645 24.04 219.645 25.92C216.285 28.04 212.525 28.84 205.885 28.84C199.365 28.84 195.525 27.84 192.365 25.32C189.205 22.84 187.605 19.16 187.605 14.52C187.605 9.96 189.245 6.24 192.245 4.04C195.605 1.56 199.845 0.479999 206.125 0.479999C213.325 0.479999 218.245 1.92 221.405 4.88C223.045 6.48 223.885 8.36 224.285 11.52H212.565C211.725 8.44 209.965 7.28 206.165 7.28C201.365 7.28 198.845 9.72 198.845 14.36C198.845 19.24 201.525 22.04 206.165 22.04C208.125 22.04 209.885 21.56 210.845 20.72C211.485 20.16 211.885 19.52 212.565 18.04ZM237.904 28V8.12H227.744V1.32H258.384V8.12H248.104V28H237.904ZM0.6 61V34.32H17.36L21.64 46.56L25.76 34.32H42.4V61H32.2V42.6L25.76 61H17.36L10.8 42.6V61H0.6ZM62.3512 61L73.0312 34.32H86.5112L97.1912 61H86.0312L84.9113 58.56H74.0312L73.0312 61H62.3512ZM75.8712 51.76H82.9112L79.4712 41.96L75.8712 51.76ZM139.874 51.04H151.594C151.194 54.92 149.954 57.04 146.954 58.92C143.594 61.04 139.834 61.84 133.194 61.84C126.674 61.84 122.834 60.84 119.674 58.32C116.514 55.84 114.914 52.16 114.914 47.52C114.914 42.96 116.554 39.24 119.554 37.04C122.914 34.56 127.154 33.48 133.434 33.48C140.634 33.48 145.554 34.92 148.714 37.88C150.354 39.48 151.194 41.36 151.594 44.52H139.874C139.034 41.44 137.274 40.28 133.474 40.28C128.674 40.28 126.154 42.72 126.154 47.36C126.154 52.24 128.834 55.04 133.474 55.04C135.434 55.04 137.194 54.56 138.154 53.72C138.794 53.16 139.194 52.52 139.874 51.04ZM172.853 61V34.32H183.053V43.72H194.973V34.32H205.173V61H194.973V50.52H183.053V61H172.853ZM225.151 61L235.831 34.32H249.311L259.991 61H248.831L247.711 58.56H236.831L235.831 61H225.151ZM238.671 51.76H245.711L242.271 41.96L238.671 51.76Z" fill="white"/>
</svg>
