<svg width="352" height="69" viewBox="0 0 352 69" fill="none" xmlns="http://www.w3.org/2000/svg">
<path d="M2 30V2H30.8C34.72 2 37.88 2.76 40.28 4.32C42.68 5.84 43.88 8.12 43.88 11.2C43.88 16.96 39.52 19.84 30.8 19.84L11.32 19.8V30H2ZM11.32 14.28H30.2C32.96 14.28 34.32 13.24 34.32 11.2C34.32 9.4 32.8 8.2 30.2 8.2H11.32V14.28ZM98.1644 30H87.4444L77.4844 19.64L64.8044 19.6V30H55.4844V2H84.2844C88.2044 2 91.3644 2.76 93.7644 4.28C96.1644 5.8 97.3644 8.08 97.3644 11.08C97.3644 16.24 93.8844 19.04 86.9244 19.56L98.1644 30ZM64.8044 8.2V14.08H83.6844C86.4444 14.08 87.8044 13.08 87.8044 11.08C87.8044 9.36 86.2844 8.2 83.6844 8.2H64.8044ZM150.301 26.96C145.301 29.8 138.901 31.2 131.101 31.2C123.301 31.2 116.861 29.8 111.861 26.96C106.861 24.12 104.381 20.44 104.381 16C104.381 11.56 106.861 7.92 111.861 5.08C116.861 2.24 123.301 0.799999 131.101 0.799999C138.901 0.799999 145.301 2.24 150.301 5.08C155.301 7.92 157.821 11.56 157.821 16C157.821 20.44 155.301 24.12 150.301 26.96ZM130.261 25C135.501 25 139.701 24.16 142.901 22.48C146.141 20.8 147.741 18.56 147.701 15.8C147.741 13.12 146.341 11 143.541 9.4C140.781 7.8 136.901 7 131.941 7C126.701 7 122.501 7.84 119.301 9.52C116.141 11.2 114.541 13.44 114.541 16.2C114.541 21.6 120.221 25 130.261 25ZM186.846 2V16C186.926 24.96 185.486 30.32 182.126 33.68C179.926 35.76 176.286 37.12 171.926 37.6C169.766 37.88 167.166 38 164.126 38L163.406 31.8C168.046 31.8 170.726 31.4 173.086 30.16C174.246 29.56 175.166 28.72 175.766 27.56C177.006 25.28 177.566 21.96 177.566 16.8V8.2H166.926V2H186.846ZM200.859 30V2H242.419V8.2H210.179V13H236.819V18.6H210.179V23.8H242.419V30H200.859ZM276.634 31.2C271.154 31.2 266.234 30.56 261.874 29.28C257.554 27.96 254.194 26.16 251.794 23.84C249.394 21.52 248.194 18.92 248.194 16C248.194 10.12 253.234 5.32 261.874 2.76C266.234 1.44 271.154 0.799999 276.634 0.799999C284.314 0.799999 290.674 1.92 295.714 4.12V12.2H292.994C290.874 8.84 284.834 7 276.634 7C271.074 7 266.634 7.84 263.314 9.48C259.994 11.12 258.354 13.32 258.354 16C258.354 21.6 264.634 25 276.634 25C280.354 25 283.994 24.48 287.514 23.48C291.074 22.44 293.794 21.12 295.714 19.48L296.514 27.96C290.554 30.12 283.954 31.2 276.634 31.2ZM350.116 2V8.2H330.836V30H321.436V8.2H302.116V2H350.116ZM0.8 67V39H12.2L30.84 61.44H31.96L50.56 39H62V67H52.72V49.76L38.08 67H24.72L10.12 49.76V67H0.8ZM125.112 67L121.032 60.8H99.3522L95.2722 67H82.9922L104.392 39H115.992L137.392 67H125.112ZM103.432 54.6H116.952L110.712 45.16H109.672L103.432 54.6ZM181.606 68.2C176.126 68.2 171.206 67.56 166.846 66.28C162.526 64.96 159.166 63.16 156.766 60.84C154.366 58.52 153.166 55.92 153.166 53C153.166 47.12 158.206 42.32 166.846 39.76C171.206 38.44 176.126 37.8 181.606 37.8C189.286 37.8 195.646 38.92 200.686 41.12V49.2H197.966C195.846 45.84 189.806 44 181.606 44C176.046 44 171.606 44.84 168.286 46.48C164.966 48.12 163.326 50.32 163.326 53C163.326 58.6 169.606 62 181.606 62C185.326 62 188.966 61.48 192.486 60.48C196.046 59.44 198.766 58.12 200.686 56.48L201.486 64.96C195.526 67.12 188.926 68.2 181.606 68.2ZM266.487 39H275.808V67H266.487V55.28H234.207V67H224.887V39H234.207V49.08H266.487V39ZM338.937 67L334.857 60.8H313.177L309.097 67H296.817L318.217 39H329.817L351.217 67H338.937ZM317.257 54.6H330.777L324.537 45.16H323.497L317.257 54.6Z" fill="white"/>
</svg>
